<svg width="28" height="28" viewBox="0 0 28 28" fill="none" xmlns="http://www.w3.org/2000/svg">
<path d="M20.9999 15.1666H15.1666V20.9999C15.1666 21.6416 14.6416 22.1666 13.9999 22.1666C13.3583 22.1666 12.8333 21.6416 12.8333 20.9999V15.1666H6.99992C6.35825 15.1666 5.83325 14.6416 5.83325 13.9999C5.83325 13.3583 6.35825 12.8333 6.99992 12.8333H12.8333V6.99992C12.8333 6.35825 13.3583 5.83325 13.9999 5.83325C14.6416 5.83325 15.1666 6.35825 15.1666 6.99992V12.8333H20.9999C21.6416 12.8333 22.1666 13.3583 22.1666 13.9999C22.1666 14.6416 21.6416 15.1666 20.9999 15.1666Z" fill="#007079"/>
</svg>
