<svg width="29" height="29" viewBox="0 0 29 29" fill="none" xmlns="http://www.w3.org/2000/svg">
<path d="M21.8501 6.89968C21.6321 6.67342 21.3362 6.54626 21.0276 6.54626C20.719 6.54626 20.4231 6.67342 20.2051 6.89968L14.5001 12.7964L8.79509 6.8876C8.57712 6.66134 8.28119 6.53418 7.97259 6.53418C7.66398 6.53418 7.36806 6.66134 7.15009 6.8876C6.69509 7.35885 6.69509 8.1201 7.15009 8.59135L12.8551 14.5001L7.15009 20.4089C6.69509 20.8801 6.69509 21.6414 7.15009 22.1126C7.60509 22.5839 8.34009 22.5839 8.79509 22.1126L14.5001 16.2038L20.2051 22.1126C20.6601 22.5839 21.3951 22.5839 21.8501 22.1126C22.3051 21.6414 22.3051 20.8801 21.8501 20.4089L16.1451 14.5001L21.8501 8.59135C22.2934 8.13218 22.2934 7.35885 21.8501 6.89968Z" fill="#666666"/>
</svg>
