<svg width="25" height="24" viewBox="0 0 25 24" fill="none" xmlns="http://www.w3.org/2000/svg">
<path fill-rule="evenodd" clip-rule="evenodd" d="M12.5449 2C7.02492 2 2.54492 6.48 2.54492 12C2.54492 17.52 7.02492 22 12.5449 22C18.0649 22 22.5449 17.52 22.5449 12C22.5449 6.48 18.0649 2 12.5449 2ZM11.5449 7V9H13.5449V7H11.5449ZM13.5449 16C13.5449 16.55 13.0949 17 12.5449 17C11.9949 17 11.5449 16.55 11.5449 16V12C11.5449 11.45 11.9949 11 12.5449 11C13.0949 11 13.5449 11.45 13.5449 12V16ZM4.54492 12C4.54492 16.41 8.13492 20 12.5449 20C16.9549 20 20.5449 16.41 20.5449 12C20.5449 7.59 16.9549 4 12.5449 4C8.13492 4 4.54492 7.59 4.54492 12Z" fill="#73B1B5"/>
</svg>
