<svg width="28" height="28" viewBox="0 0 28 28" fill="none" xmlns="http://www.w3.org/2000/svg">
<path fill-rule="evenodd" clip-rule="evenodd" d="M3.50008 3.5H24.5001C25.6667 3.5 26.8334 4.66667 26.8334 5.83333V22.1667C26.8334 23.3333 25.6667 24.5 24.5001 24.5H3.50008C2.21675 24.5 1.16675 23.45 1.16675 22.1667V5.83333C1.16675 4.66667 2.33341 3.5 3.50008 3.5ZM9.47341 15.155L6.56841 18.8883C6.26508 19.2733 6.54508 19.8333 7.02341 19.845H21.0117C21.4901 19.845 21.7701 19.2967 21.4784 18.9117L17.3834 13.4517C17.1501 13.1367 16.6834 13.1367 16.4501 13.44L12.8334 18.095L10.3834 15.1433C10.1501 14.8517 9.70675 14.8633 9.47341 15.155Z" fill="#007079"/>
</svg>
