<svg width="14" height="35" viewBox="0 0 14 35" fill="none" xmlns="http://www.w3.org/2000/svg">
<path d="M13.0434 26.5745L9.44817 21.5851V17.1827C9.44817 16.5224 9.22805 15.862 8.93456 15.3484L7.61385 13.3674L10.5488 8.23127C10.6955 8.01115 10.7689 7.71766 10.7689 7.42417V2.58157C10.7689 2.14133 10.4754 1.70109 10.0352 1.55435L9.00793 1.18748C8.78782 1.11411 8.64107 1.26086 8.5677 1.4076C8.49433 1.62772 8.64107 1.77447 8.78781 1.84784L9.81503 2.2147C9.96178 2.28808 10.0352 2.36145 10.0352 2.50819V7.27742C10.0352 7.42417 9.96178 7.57091 9.8884 7.71766L7.17361 12.5603L7.10024 12.4869C7.10024 12.4135 7.02687 12.4135 6.95349 12.3401C7.4671 11.7532 7.76059 10.9461 7.76059 10.0656C7.76059 8.08452 6.1464 6.47032 4.16533 6.47032C2.18427 6.47032 0.570068 8.08452 0.570068 10.0656C0.570068 12.0466 2.18427 13.6609 4.16533 13.6609C5.04581 13.6609 5.85291 13.3674 6.43989 12.7804L8.20083 15.4952C8.49433 15.9354 8.64107 16.449 8.64107 16.9626V27.9685C8.64107 28.1153 8.64107 28.3354 8.5677 28.4821L6.1464 34.2786C6.07302 34.4987 6.1464 34.6455 6.36652 34.7922C6.43989 34.7922 6.43989 34.7922 6.51326 34.7922C6.66001 34.7922 6.80675 34.7188 6.88012 34.5721L9.30142 28.7756C9.3748 28.5555 9.44817 28.262 9.44817 27.9685V22.6123L12.4565 26.7946C12.6032 27.0147 12.6766 27.3082 12.6766 27.6017V34.4253C12.6766 34.6455 12.8233 34.7922 13.0434 34.7922C13.2636 34.7922 13.4103 34.6455 13.4103 34.4253V27.6017C13.4837 27.3816 13.3369 26.9413 13.0434 26.5745ZM4.23871 13.0739C2.62451 13.0739 1.37717 11.7532 1.37717 10.2123C1.37717 8.59813 2.69788 7.35079 4.23871 7.35079C5.77953 7.35079 7.10024 8.6715 7.10024 10.2123C7.10024 11.7532 5.85291 13.0739 4.23871 13.0739Z" fill="#007079"/>
<path fill-rule="evenodd" clip-rule="evenodd" d="M8.62044 1.03595C8.7453 0.957912 8.90195 0.93027 9.07309 0.987318L9.07732 0.98873L10.1025 1.35492C10.6316 1.53243 10.9775 2.05541 10.9775 2.5804V7.423C10.9775 7.74502 10.8982 8.07884 10.7263 8.34016L7.85912 13.3577L9.11193 15.2369L9.11551 15.2432C9.42312 15.7815 9.65675 16.4774 9.65675 17.1816V21.5162L13.2094 26.4465C13.3685 26.6463 13.4893 26.8671 13.5612 27.0726C13.6255 27.2563 13.662 27.4598 13.6189 27.63V34.4242C13.6189 34.5819 13.5654 34.7296 13.4566 34.8385C13.3477 34.9473 13.2 35.0008 13.0423 35.0008C12.8845 35.0008 12.7368 34.9473 12.628 34.8385C12.5191 34.7296 12.4656 34.5819 12.4656 34.4242V27.6005C12.4656 27.3396 12.4001 27.0905 12.2827 26.9127L9.65675 23.262V27.9674C9.65675 28.2926 9.57611 28.6102 9.49925 28.8408L9.49679 28.8482L7.06975 34.6583L7.06656 34.6647C6.95274 34.8924 6.72665 35.0008 6.51208 35.0008H6.30183L6.24899 34.9656C6.12471 34.8827 6.0136 34.7821 5.95354 34.6469C5.89009 34.5042 5.89784 34.3562 5.94622 34.2111L5.94868 34.2037L8.37572 28.3935L8.37891 28.3872C8.39877 28.3474 8.4138 28.2854 8.422 28.2033C8.42998 28.1235 8.43013 28.0419 8.43013 27.9674V16.9615C8.43013 16.4875 8.29469 16.0147 8.02513 15.6104L8.02366 15.6082L6.39775 13.1015C5.78759 13.6166 5.00183 13.8694 4.16416 13.8694C2.06725 13.8694 0.359131 12.1613 0.359131 10.0644C0.359131 7.9675 2.06725 6.25939 4.16416 6.25939C6.26107 6.25939 7.96918 7.9675 7.96918 10.0644C7.96918 10.3308 7.94364 10.5915 7.89416 10.8427L9.70182 7.61827C9.77991 7.4619 9.82422 7.36303 9.82422 7.27625V2.50702C9.82422 2.48784 9.82183 2.47785 9.82044 2.47351C9.81927 2.46987 9.81793 2.46728 9.81515 2.4638C9.8076 2.45436 9.78739 2.43585 9.73077 2.4066L8.70416 2.03995L8.69283 2.03429C8.59804 1.98689 8.48905 1.90938 8.41616 1.79275C8.33812 1.66789 8.31048 1.51124 8.36753 1.3401L8.37224 1.32596L8.37891 1.31263C8.4263 1.21783 8.50381 1.10884 8.62044 1.03595ZM8.76153 1.48615C8.75096 1.52679 8.75954 1.55061 8.77191 1.57041C8.7895 1.59854 8.82359 1.62879 8.87035 1.65383L9.89634 2.02025L9.90767 2.02592C9.98956 2.06687 10.0774 2.12002 10.1427 2.20173C10.2141 2.29093 10.2437 2.39454 10.2437 2.50702V7.27625C10.2437 7.47349 10.1505 7.65942 10.0835 7.793C10.0806 7.79887 10.0777 7.80464 10.0748 7.8103L10.0704 7.81918L7.21997 12.9033L6.88931 12.5726V12.5567C6.86472 12.5403 6.83478 12.5181 6.804 12.4873L6.66523 12.3485L6.79446 12.2008C7.27145 11.6557 7.54966 10.8991 7.54966 10.0644C7.54966 8.1992 6.02937 6.67891 4.16416 6.67891C2.29894 6.67891 0.778653 8.1992 0.778653 10.0644C0.778653 11.9296 2.29894 13.4499 4.16416 13.4499C4.99799 13.4499 5.74868 13.1726 6.29039 12.6309L6.47365 12.4476L8.37419 15.3776C8.37444 15.378 8.37468 15.3784 8.37492 15.3787C8.69185 15.8546 8.84966 16.4086 8.84966 16.9615V27.9705C8.84966 28.0425 8.84966 28.1429 8.83944 28.245C8.82953 28.3442 8.80859 28.4625 8.75761 28.5677L6.34203 34.3505C6.3197 34.4209 6.32728 34.4549 6.3369 34.4765C6.34763 34.5007 6.37285 34.5353 6.43238 34.5813H6.51165C6.5885 34.5813 6.65484 34.5449 6.68865 34.4823L9.10366 28.7009C9.17264 28.4923 9.23723 28.2261 9.23723 27.9674V21.9603L12.6299 26.677C12.8047 26.9392 12.8852 27.2759 12.8852 27.6005V34.4242C12.8852 34.4866 12.905 34.5222 12.9246 34.5418C12.9442 34.5614 12.9799 34.5813 13.0423 34.5813C13.1046 34.5813 13.1403 34.5614 13.1599 34.5418C13.1795 34.5222 13.1994 34.4866 13.1994 34.4242V27.5665L13.2101 27.5342C13.2245 27.4911 13.2247 27.381 13.1653 27.2112C13.1093 27.0513 13.0112 26.8702 12.8785 26.7043L12.8719 26.6961L9.23723 21.6516V17.1816C9.23723 16.5676 9.03237 15.9455 8.75479 15.4575L7.36623 13.3747L10.369 8.11975L10.3731 8.11374C10.4917 7.93575 10.5579 7.68537 10.5579 7.423V2.5804C10.5579 2.22565 10.3178 1.86888 9.96764 1.75218L9.96341 1.75076L8.93865 1.38473C8.8908 1.36921 8.8644 1.3782 8.84278 1.39171C8.81546 1.40878 8.78614 1.44144 8.76153 1.48615ZM6.93889 12.5883C6.93891 12.5883 6.93846 12.588 6.93763 12.5874L6.93889 12.5883ZM4.23753 7.55939C2.80903 7.55939 1.58575 8.71629 1.58575 10.2112C1.58575 11.6397 2.74266 12.8629 4.23753 12.8629C5.7324 12.8629 6.88931 11.6397 6.88931 10.2112C6.88931 8.78618 5.66251 7.55939 4.23753 7.55939ZM1.16623 10.2112C1.16623 8.47763 2.58437 7.13986 4.23753 7.13986C5.8942 7.13986 7.30883 8.55449 7.30883 10.2112C7.30883 11.8643 5.97106 13.2825 4.23753 13.2825C2.504 13.2825 1.16623 11.8643 1.16623 10.2112Z" fill="#007079"/>
</svg>
