<svg width="16" height="16" viewBox="0 0 16 16" fill="none" xmlns="http://www.w3.org/2000/svg">
<mask id="mask0" mask-type="alpha" maskUnits="userSpaceOnUse" x="0" y="0" width="16" height="16">
<path fill-rule="evenodd" clip-rule="evenodd" d="M7.99992 1.33325C4.31992 1.33325 1.33325 4.31992 1.33325 7.99992C1.33325 11.6799 4.31992 14.6666 7.99992 14.6666C11.6799 14.6666 14.6666 11.6799 14.6666 7.99992C14.6666 4.31992 11.6799 1.33325 7.99992 1.33325ZM4.71325 12.1866C4.99992 11.5866 6.74658 10.9999 7.99992 10.9999C9.25325 10.9999 11.0066 11.5866 11.2866 12.1866C10.3799 12.9066 9.23992 13.3333 7.99992 13.3333C6.75992 13.3333 5.61992 12.9066 4.71325 12.1866ZM7.99992 9.66659C8.97325 9.66659 11.2866 10.0599 12.2399 11.2199C12.9199 10.3266 13.3333 9.21325 13.3333 7.99992C13.3333 5.05992 10.9399 2.66659 7.99992 2.66659C5.05992 2.66659 2.66659 5.05992 2.66659 7.99992C2.66659 9.21325 3.07992 10.3266 3.75992 11.2199C4.71325 10.0599 7.02659 9.66659 7.99992 9.66659ZM7.99992 3.99992C6.70658 3.99992 5.66658 5.03992 5.66658 6.33325C5.66658 7.62659 6.70658 8.66659 7.99992 8.66659C9.29325 8.66659 10.3333 7.62659 10.3333 6.33325C10.3333 5.03992 9.29325 3.99992 7.99992 3.99992ZM6.99992 6.33325C6.99992 6.88659 7.44659 7.33325 7.99992 7.33325C8.55325 7.33325 8.99992 6.88659 8.99992 6.33325C8.99992 5.77992 8.55325 5.33325 7.99992 5.33325C7.44659 5.33325 6.99992 5.77992 6.99992 6.33325Z" fill="#007079"/>
</mask>
<g mask="url(#mask0)">
<rect width="16" height="16" fill="#007079"/>
</g>
</svg>
